<svg version="1.1" xmlns="http://www.w3.org/2000/svg"
  viewBox="0 0 715.9999999999999 513.7155489899089" width="715.9999999999999"
  height="513.7155489899089">
  <!-- svg-source:excalidraw -->

  <defs>
    <style class="style-fonts">
      @font-face {
      font-family: "Virgil";
      src: url("https://excalidraw.com/Virgil.woff2");
      }
      @font-face {
      font-family: "Cascadia";
      src: url("https://excalidraw.com/Cascadia.woff2");
      }
    </style>
  </defs>
  <rect x="0" y="0" width="715.9999999999999" height="513.7155489899089" fill="#ffffff"></rect>
  <g stroke-linecap="round"
    transform="translate(190.67934519491655 279.7155489899089) rotate(0 181.5 112)">
    <path
      d="M32 0 M32 0 C110.3 -0.49, 188.73 -2.21, 331 0 M32 0 C105.36 1.32, 179.53 0.36, 331 0 M331 0 C351.86 -0.23, 361.94 8.68, 363 32 M331 0 C350.26 -0.94, 363.29 11.28, 363 32 M363 32 C364.16 80.35, 362.93 130.1, 363 192 M363 32 C362.24 86.77, 363.28 140.77, 363 192 M363 192 C363.86 214.66, 351.18 223.57, 331 224 M363 192 C362.09 215.54, 352.7 222.28, 331 224 M331 224 C239.63 224.21, 145.71 223.15, 32 224 M331 224 C258.02 225.03, 184.89 224.75, 32 224 M32 224 C11.79 223.14, 1.71 213.58, 0 192 M32 224 C11.84 223.55, -0.78 215.3, 0 192 M0 192 C0.96 145.03, 1.46 94.54, 0 32 M0 192 C1.54 128.21, 1.26 65.24, 0 32 M0 32 C0.05 11.43, 11.2 0.6, 32 0 M0 32 C1.61 8.7, 9.84 -2.09, 32 0"
      stroke="#000000" stroke-width="1" fill="none"></path>
  </g>
  <g transform="translate(195.67934519491655 284.7155489899089) rotate(0 57 13)">
    <text x="0" y="18" font-family="Virgil, Segoe UI Emoji" font-size="20px" fill="#000000"
      text-anchor="start" style="white-space: pre;" direction="ltr">SCM Portal</text>
  </g>
  <g stroke-linecap="round" transform="translate(10 10) rotate(0 347.99999999999994 112.5)">
    <path
      d="M32 0 M32 0 C180.24 1.54, 328.65 1.47, 664 0 M32 0 C265.44 1.21, 499.35 1.01, 664 0 M664 0 C687.13 0.44, 694.61 10.33, 696 32 M664 0 C683.91 1.34, 695.98 9.63, 696 32 M696 32 C696.85 93.25, 698.31 155.29, 696 193 M696 32 C696.44 92.1, 697.85 153.32, 696 193 M696 193 C694.11 215.29, 683.68 226.16, 664 225 M696 193 C695.15 214.25, 683.57 224.19, 664 225 M664 225 C486.39 228.25, 307.7 226.78, 32 225 M664 225 C425.56 223.83, 186.67 224.37, 32 225 M32 225 C10.69 225.85, 1.28 214.98, 0 193 M32 225 C8.96 223.37, -1.49 213.31, 0 193 M0 193 C0.09 147.93, 2.26 108.29, 0 32 M0 193 C0.74 145.38, 1.22 96.46, 0 32 M0 32 C0.02 9.38, 10.53 -1.51, 32 0 M0 32 C1.68 9.26, 9.07 1.06, 32 0"
      stroke="#000000" stroke-width="1" fill="none"></path>
  </g>
  <g transform="translate(15 15) rotate(0 129.5 13)">
    <text x="0" y="18" font-family="Virgil, Segoe UI Emoji" font-size="20px" fill="#000000"
      text-anchor="start" style="white-space: pre;" direction="ltr">CES - code execution side</text>
  </g>
  <g stroke-linecap="round"
    transform="translate(203.17934519491655 405.7155489899089) rotate(0 79 34.5)">
    <path
      d="M17.25 0 M17.25 0 C49.8 0.92, 85.41 1.2, 140.75 0 M17.25 0 C55.38 -0.23, 92.2 -0.01, 140.75 0 M140.75 0 C152.38 -0.21, 157.23 5.98, 158 17.25 M140.75 0 C152.74 -0.63, 156.03 3.52, 158 17.25 M158 17.25 C157.24 25.52, 159.72 31.35, 158 51.75 M158 17.25 C157.49 27.57, 158.35 38.87, 158 51.75 M158 51.75 C158.88 61.98, 151.01 68.55, 140.75 69 M158 51.75 C157.65 62.77, 150.65 67.63, 140.75 69 M140.75 69 C90.97 68.96, 43.48 71.03, 17.25 69 M140.75 69 C102.79 69.28, 64.4 67.49, 17.25 69 M17.25 69 C6.91 68.71, -1.38 64.82, 0 51.75 M17.25 69 C5.23 70, 0.83 62.64, 0 51.75 M0 51.75 C0.7 42.8, 0.65 36.19, 0 17.25 M0 51.75 C-0.14 41.61, -0.01 31.3, 0 17.25 M0 17.25 C-0.81 7.07, 7.26 -1.84, 17.25 0 M0 17.25 C-0.39 5.69, 7.8 1.09, 17.25 0"
      stroke="#000000" stroke-width="1" fill="none"></path>
  </g>
  <g transform="translate(249.67934519491655 426.2155489899089) rotate(0 32.5 13)">
    <text x="32.5" y="18" font-family="Virgil, Segoe UI Emoji" font-size="20px" fill="#000000"
      text-anchor="middle" style="white-space: pre;" direction="ltr">GitHub</text>
  </g>
  <g stroke-linecap="round"
    transform="translate(380.17934519491655 406.2155489899089) rotate(0 79 34.5)">
    <path
      d="M17.25 0 M17.25 0 C50.27 0.1, 82.66 -2.13, 140.75 0 M17.25 0 C55.54 -1.69, 91.33 -1.16, 140.75 0 M140.75 0 C153.83 -1.37, 159.24 6.93, 158 17.25 M140.75 0 C150.26 0.87, 158.69 7.08, 158 17.25 M158 17.25 C157.29 29.22, 158.21 41.67, 158 51.75 M158 17.25 C158.3 27.51, 157.79 36.17, 158 51.75 M158 51.75 C157.71 62.35, 153.32 68.05, 140.75 69 M158 51.75 C158.01 61.03, 150.92 71.07, 140.75 69 M140.75 69 C100.12 67.65, 59.65 68.25, 17.25 69 M140.75 69 C108.24 67.5, 75.29 68.81, 17.25 69 M17.25 69 C7.1 67.76, -0.34 62.52, 0 51.75 M17.25 69 C4.09 69.95, 1.43 63.78, 0 51.75 M0 51.75 C-1.6 44.71, -0.41 34.83, 0 17.25 M0 51.75 C0.81 42.13, -0.86 32.42, 0 17.25 M0 17.25 C0.65 7, 5.19 -0.54, 17.25 0 M0 17.25 C0.13 7.09, 7.21 0.27, 17.25 0"
      stroke="#000000" stroke-width="1" fill="none"></path>
  </g>
  <g transform="translate(425.17934519491655 426.7155489899089) rotate(0 34 13)">
    <text x="34" y="18" font-family="Virgil, Segoe UI Emoji" font-size="20px" fill="#000000"
      text-anchor="middle" style="white-space: pre;" direction="ltr">GitLab</text>
  </g>
  <g stroke-linecap="round" transform="translate(18.5 132.5) rotate(0 79 34.5)">
    <path
      d="M17.25 0 M17.25 0 C46.48 0.57, 72.5 0.43, 140.75 0 M17.25 0 C60.23 0, 104.58 -1.1, 140.75 0 M140.75 0 C151.94 1.92, 157.22 4.64, 158 17.25 M140.75 0 C150.27 1.42, 157.76 7.77, 158 17.25 M158 17.25 C157.99 28.36, 157.05 36.08, 158 51.75 M158 17.25 C157.84 23.66, 158.97 30.48, 158 51.75 M158 51.75 C159.99 64.24, 152.19 67.15, 140.75 69 M158 51.75 C156.41 65.22, 151.5 67.09, 140.75 69 M140.75 69 C102.14 68.05, 64.26 69.18, 17.25 69 M140.75 69 C111.55 68.79, 81.81 69.75, 17.25 69 M17.25 69 C4.45 67.84, 1.32 63.59, 0 51.75 M17.25 69 C6.53 70.42, -1.17 62.72, 0 51.75 M0 51.75 C0.5 43.09, 0.4 36.28, 0 17.25 M0 51.75 C-0.35 44.15, 0.83 34.82, 0 17.25 M0 17.25 C0.97 3.87, 4.54 -1.9, 17.25 0 M0 17.25 C-0.41 4.51, 7.06 -0.63, 17.25 0"
      stroke="#000000" stroke-width="1" fill="none"></path>
  </g>
  <g transform="translate(28.5 153) rotate(0 69 13)">
    <text x="69" y="18" font-family="Virgil, Segoe UI Emoji" font-size="20px" fill="#000000"
      text-anchor="middle" style="white-space: pre;" direction="ltr">GitHub Runner</text>
  </g>
  <g stroke-linecap="round" transform="translate(362.3789788369651 132.5) rotate(0 79 34.5)">
    <path
      d="M17.25 0 M17.25 0 C60.92 -0.36, 100.34 -1.04, 140.75 0 M17.25 0 C49.78 -0.57, 81.88 0, 140.75 0 M140.75 0 C153.43 -0.86, 159.22 5.03, 158 17.25 M140.75 0 C154.03 1.3, 157.29 4.46, 158 17.25 M158 17.25 C158.64 26.55, 156.51 32.2, 158 51.75 M158 17.25 C157.72 28.19, 157.47 41.11, 158 51.75 M158 51.75 C157.84 65.12, 153.83 70.52, 140.75 69 M158 51.75 C155.83 63.82, 153.99 71.17, 140.75 69 M140.75 69 C110.06 68.45, 81.11 67.96, 17.25 69 M140.75 69 C102.85 69.21, 66.17 70.35, 17.25 69 M17.25 69 C5.49 67.62, -1.51 61.4, 0 51.75 M17.25 69 C7.47 70.09, 1.37 64.96, 0 51.75 M0 51.75 C-1.78 37.91, 0.06 25.55, 0 17.25 M0 51.75 C0.63 42.92, -0.49 32.01, 0 17.25 M0 17.25 C-0.75 6.31, 7.06 -0.84, 17.25 0 M0 17.25 C0.63 4.29, 4.86 -0.39, 17.25 0"
      stroke="#000000" stroke-width="1" fill="none"></path>
  </g>
  <g transform="translate(367.8789788369651 153) rotate(0 73.5 13)">
    <text x="73.5" y="18" font-family="Virgil, Segoe UI Emoji" font-size="20px" fill="#000000"
      text-anchor="middle" style="white-space: pre;" direction="ltr">Jenkins Pipeline</text>
  </g>
  <g stroke-linecap="round" transform="translate(536.3789788369651 133.5) rotate(0 79 34.5)">
    <path
      d="M17.25 0 M17.25 0 C49.94 -2, 79.95 0.14, 140.75 0 M17.25 0 C43.19 0.63, 69.06 0.87, 140.75 0 M140.75 0 C152.24 -1.56, 156.08 7.38, 158 17.25 M140.75 0 C153.23 -0.38, 158.07 4.56, 158 17.25 M158 17.25 C158.3 27.46, 157.99 41.21, 158 51.75 M158 17.25 C157.79 29.87, 159.16 42.75, 158 51.75 M158 51.75 C157.85 61.64, 152.75 69.4, 140.75 69 M158 51.75 C160.13 62.81, 149.97 68.83, 140.75 69 M140.75 69 C100.83 70.53, 58.77 69.08, 17.25 69 M140.75 69 C93 70.39, 45.48 70.84, 17.25 69 M17.25 69 C5.01 68.77, -1.05 63.82, 0 51.75 M17.25 69 C6.7 69.86, -1.33 63.23, 0 51.75 M0 51.75 C-1.12 41.19, 1.61 27.36, 0 17.25 M0 51.75 C-0.76 43.92, 0.07 36.42, 0 17.25 M0 17.25 C-1.02 5.37, 6.44 -1.54, 17.25 0 M0 17.25 C0 3.6, 6.03 0.81, 17.25 0"
      stroke="#000000" stroke-width="1" fill="none"></path>
  </g>
  <g transform="translate(592.3789788369651 154) rotate(0 23 13)">
    <text x="23" y="18" font-family="Virgil, Segoe UI Emoji" font-size="20px" fill="#000000"
      text-anchor="middle" style="white-space: pre;" direction="ltr">local</text>
  </g>
  <g stroke-linecap="round"
    transform="translate(200.17934519491655 336.4655489899089) rotate(0 171.5 23.5)">
    <path
      d="M11.75 0 M11.75 0 C92.46 3.04, 170.76 1.81, 331.25 0 M11.75 0 C96.31 -0.73, 179.48 -0.85, 331.25 0 M331.25 0 C338.48 -0.81, 344.56 3.44, 343 11.75 M331.25 0 C339.67 -0.22, 342.85 5.5, 343 11.75 M343 11.75 C344.61 21.05, 342.38 30.75, 343 35.25 M343 11.75 C343.23 18.3, 343 24.78, 343 35.25 M343 35.25 C341.92 43.24, 338.6 46.59, 331.25 47 M343 35.25 C343.4 42.54, 339.01 45.46, 331.25 47 M331.25 47 C251.76 45.7, 174.02 46.25, 11.75 47 M331.25 47 C252.17 49.16, 172.28 48.72, 11.75 47 M11.75 47 C2.42 45.88, -0.12 43.84, 0 35.25 M11.75 47 C5.33 44.85, -1.78 43.74, 0 35.25 M0 35.25 C-0.31 27.51, 0.97 17.96, 0 11.75 M0 35.25 C0.04 29.78, 0.78 21.98, 0 11.75 M0 11.75 C0.67 2.35, 5.84 -0.45, 11.75 0 M0 11.75 C-1.52 1.77, 2.47 0.11, 11.75 0"
      stroke="#000000" stroke-width="1" fill="none"></path>
  </g>
  <g transform="translate(344.17934519491655 345.9655489899089) rotate(0 27.5 13)">
    <text x="27.5" y="18" font-family="Virgil, Segoe UI Emoji" font-size="20px" fill="#000000"
      text-anchor="middle" style="white-space: pre;" direction="ltr">Layer</text>
  </g>
  <g stroke-linecap="round" transform="translate(20.697276169215797 65.75) rotate(0 336.5 23.5)">
    <path
      d="M11.75 0 M11.75 0 C174.65 2.55, 337.87 2.19, 661.25 0 M11.75 0 C233.23 -1.9, 454.9 -2.57, 661.25 0 M661.25 0 C670.33 0.45, 674.41 2.43, 673 11.75 M661.25 0 C670.08 -0.97, 675.26 3.55, 673 11.75 M673 11.75 C674.81 18.73, 671.06 30.19, 673 35.25 M673 11.75 C673.32 19.29, 672.15 25.57, 673 35.25 M673 35.25 C674.28 41.4, 669.41 45.99, 661.25 47 M673 35.25 C670.95 44.88, 667.54 49.01, 661.25 47 M661.25 47 C468.64 47.45, 277.15 48.13, 11.75 47 M661.25 47 C449.46 45.85, 237.59 46.33, 11.75 47 M11.75 47 C5.58 48.51, -0.07 41.49, 0 35.25 M11.75 47 C2.82 46.25, 1.81 44.13, 0 35.25 M0 35.25 C-0.36 25.23, 0.84 18.65, 0 11.75 M0 35.25 C0.44 29.06, -0.74 22.29, 0 11.75 M0 11.75 C0.47 2.19, 3.68 1.3, 11.75 0 M0 11.75 C1 4.83, 2.42 0.84, 11.75 0"
      stroke="#000000" stroke-width="1" fill="none"></path>
  </g>
  <g transform="translate(329.6972761692158 76.25) rotate(0 27.5 13)">
    <text x="27.5" y="18" font-family="Virgil, Segoe UI Emoji" font-size="20px" fill="#000000"
      text-anchor="middle" style="white-space: pre;" direction="ltr">Layer</text>
  </g>
  <g stroke-linecap="round"
    transform="translate(190.98442649853337 132.6715890836303) rotate(0 79 34.5)">
    <path
      d="M17.25 0 M17.25 0 C59.76 0.65, 104.64 -1.65, 140.75 0 M17.25 0 C59.22 -0.37, 100.29 -1.32, 140.75 0 M140.75 0 C150.33 -1.98, 157.83 5.04, 158 17.25 M140.75 0 C150.96 -0.84, 156.48 7.69, 158 17.25 M158 17.25 C160.08 30.48, 157.74 41.62, 158 51.75 M158 17.25 C158.34 29.02, 158.11 40.1, 158 51.75 M158 51.75 C159.79 63.44, 153.81 68.64, 140.75 69 M158 51.75 C157.4 64.19, 154.15 68.75, 140.75 69 M140.75 69 C108.77 67.07, 73.34 67.31, 17.25 69 M140.75 69 C107.62 68.89, 73.39 69.1, 17.25 69 M17.25 69 C5.38 69.09, -0.07 62.46, 0 51.75 M17.25 69 C6.56 68.91, -0.53 61.91, 0 51.75 M0 51.75 C-0.97 40.96, 1.17 32.88, 0 17.25 M0 51.75 C-1.05 39.77, -0.15 28.61, 0 17.25 M0 17.25 C-1.6 6.45, 6.41 -1.17, 17.25 0 M0 17.25 C-2.17 5.02, 4.21 1.88, 17.25 0"
      stroke="#000000" stroke-width="1" fill="none"></path>
  </g>
  <g transform="translate(199.48442649853337 154.4215890836303) rotate(0 70.5 13)">
    <text x="70.5" y="18" font-family="Virgil, Segoe UI Emoji" font-size="20px" fill="#000000"
      text-anchor="middle" style="white-space: pre;" direction="ltr">GitLab Runner</text>
  </g>
</svg>