<svg version="1.0" xmlns="http://www.w3.org/2000/svg" width="640.000000pt" height="360.000000pt"
  viewBox="0 0 640.000000 360.000000" preserveAspectRatio="xMidYMid meet">

  <g transform="translate(0.000000,360.000000) scale(0.100000,-0.100000)" fill="currentColor" stroke="none">
    <path d="M5486 2114 c-59 -7 -110 -15 -113 -17 -6 -7 85 -219 100 -233 9 -9
43 -8 132 3 66 8 122 17 124 19 2 2 -1 9 -7 17 -9 10 -29 11 -107 2 -103 -12
-108 -11 -120 36 -6 25 -4 27 42 33 114 15 123 18 123 33 0 13 -14 14 -98 8
l-98 -7 -12 27 c-7 15 -10 30 -7 34 4 3 45 10 93 16 65 8 87 14 87 25 0 20
-12 20 -139 4z" />
    <path d="M4511 1993 c0 -10 14 -65 32 -123 l32 -105 60 0 c140 2 175 7 175 28
0 18 -6 18 -93 12 l-93 -7 -17 54 c-9 30 -17 62 -17 71 0 9 -8 32 -17 52 -12
25 -23 35 -40 35 -15 0 -23 -6 -22 -17z" />
    <path d="M5768 1914 c-3 -3 5 -17 18 -31 29 -31 39 -26 23 11 -12 24 -29 33
-41 20z" />
    <path d="M3643 1903 c-24 -2 -43 -5 -43 -7 0 -2 4 -16 10 -32 5 -16 21 -68 35
-116 24 -81 28 -88 52 -88 27 0 27 6 7 77 -5 19 -1 22 43 28 114 15 133 26
133 75 0 19 -9 36 -26 49 -27 21 -86 25 -211 14z m171 -39 c33 -33 8 -54 -73
-61 l-59 -6 -7 31 c-3 18 -4 36 0 42 10 17 121 12 139 -6z" />
    <path d="M2891 1853 c-5 -21 -15 -64 -22 -96 -7 -32 -16 -60 -20 -62 -4 -3
-38 35 -76 85 -63 84 -70 90 -104 90 -20 0 -38 -2 -41 -5 -4 -5 5 -50 47 -222
4 -16 13 -23 29 -23 12 0 25 2 28 5 2 3 -4 39 -14 81 -11 42 -17 78 -14 81 2
2 32 -32 67 -77 56 -72 66 -80 88 -75 33 8 34 11 55 101 10 41 21 72 25 69 3
-4 15 -41 26 -83 19 -71 22 -77 45 -74 13 1 25 4 26 5 2 2 -3 25 -10 52 -8 28
-22 80 -31 118 l-17 67 -39 0 c-36 0 -39 -2 -48 -37z" />
    <path d="M1864 1803 c3 -27 8 -79 12 -118 3 -38 8 -73 10 -76 2 -4 15 -4 30
-1 24 4 25 7 20 51 -3 25 -8 79 -12 119 -6 72 -6 72 -36 72 -30 0 -30 0 -24
-47z" />
    <path d="M885 1813 c-42 -11 -75 -43 -75 -74 0 -39 35 -54 148 -64 91 -8 114
-24 87 -61 -11 -15 -26 -19 -85 -19 -62 0 -74 3 -90 23 -23 28 -60 30 -60 2 0
-33 56 -60 123 -60 121 0 188 36 173 95 -9 34 -34 45 -133 55 -47 5 -91 14
-97 20 -17 17 5 43 45 53 36 9 109 -6 109 -23 0 -6 14 -10 30 -10 17 0 30 3
30 6 0 19 -24 43 -51 53 -32 11 -116 13 -154 4z" />
    <path d="M4841 1811 c-12 -8 -12 -12 1 -25 9 -9 18 -21 21 -28 2 -7 7 -10 11
-7 4 4 1 21 -6 38 -10 23 -17 28 -27 22z" />
    <path d="M3890 1693 c0 -13 3 -14 12 -5 15 15 31 16 22 1 -3 -6 0 -16 7 -21
10 -6 7 -7 -10 -3 -17 5 -22 4 -19 -6 6 -17 37 -24 50 -11 5 5 6 21 2 36 -5
21 -12 26 -35 26 -21 0 -29 -5 -29 -17z" />
    <path d="M3064 1669 c-5 -9 1 -10 22 -5 19 4 24 3 15 -3 -11 -7 -10 -11 5 -20
17 -11 16 -12 -8 -6 -16 3 -28 1 -28 -5 0 -10 21 -14 50 -10 23 3 24 8 12 35
-12 27 -55 35 -68 14z" />
    <path d="M1984 1634 c-9 -4 -8 -13 3 -34 19 -39 23 -38 23 5 0 34 -3 38 -26
29z" />
    <path d="M1161 1601 c-9 -6 -10 -11 -2 -15 6 -4 11 -16 11 -27 0 -10 5 -19 10
-19 11 0 12 26 2 52 -5 11 -12 14 -21 9z" />
  </g>
</svg>